<svg width="18" height="15" viewBox="0 0 18 15" fill="none" xmlns="http://www.w3.org/2000/svg">
<path fill-rule="evenodd" clip-rule="evenodd" d="M10.2925 14.2564C10.1025 14.0564 10.0025 13.8064 10.0025 13.5464C10.0025 13.2864 10.1025 13.0364 10.2925 12.8364L14.5925 8.54644L1.0025 8.54644C0.452501 8.54644 0.0025002 8.09644 0.00250023 7.54644C0.00250025 6.99644 0.452501 6.54644 1.0025 6.54644L14.5925 6.54645L10.2925 2.25644C9.9025 1.86644 9.9025 1.22644 10.2925 0.836445C10.6825 0.446445 11.3225 0.446445 11.7125 0.836445L17.7125 6.83645C17.8025 6.92645 17.8725 7.03645 17.9225 7.15645C17.9425 7.20645 17.9625 7.24645 17.9625 7.29645C18.0125 7.45645 18.0125 7.63645 17.9625 7.79645C17.9625 7.84645 17.9425 7.88645 17.9225 7.93645C17.8725 8.05645 17.8025 8.16645 17.7125 8.25645L11.7125 14.2564C11.3225 14.6464 10.6825 14.6464 10.2925 14.2564Z" fill="#313037"/>
</svg>
