<svg width="67" height="26" viewBox="0 0 67 26" fill="none" xmlns="http://www.w3.org/2000/svg">
<path fill-rule="evenodd" clip-rule="evenodd" d="M10.7075 6.2875C10.8975 6.4875 10.9975 6.7375 10.9975 6.9975C10.9975 7.2575 10.8975 7.5075 10.7075 7.7075L6.4075 11.9975L19.9975 11.9975C20.5475 11.9975 20.9975 12.4475 20.9975 12.9975C20.9975 13.5475 20.5475 13.9975 19.9975 13.9975L6.4075 13.9975L10.7075 18.2875C11.0975 18.6775 11.0975 19.3175 10.7075 19.7075C10.3175 20.0975 9.6775 20.0975 9.2875 19.7075L3.2875 13.7075C3.1975 13.6175 3.1275 13.5075 3.0775 13.3875C3.0575 13.3375 3.0375 13.2975 3.0375 13.2475C2.9875 13.0875 2.9875 12.9075 3.0375 12.7475C3.0375 12.6975 3.0575 12.6575 3.0775 12.6075C3.1275 12.4875 3.1975 12.3775 3.2875 12.2875L9.2875 6.2875C9.6775 5.8975 10.3175 5.8975 10.7075 6.2875Z" fill="#313037"/>
<path d="M35.6484 13.8086V18H33.2305V6.38281H38.543C39.6628 6.38281 40.543 6.71354 41.1836 7.375C41.8138 8.04688 42.1289 8.95443 42.1289 10.0977C42.1289 10.918 41.9049 11.6641 41.457 12.3359C40.7956 13.3177 39.7878 13.8086 38.4336 13.8086H35.6484ZM35.6484 11.8086H37.9023C38.6185 11.8086 39.1198 11.6003 39.4062 11.1836C39.6094 10.8971 39.7109 10.5026 39.7109 10C39.7109 9.4349 39.5456 9.02474 39.2148 8.76953C38.8737 8.51172 38.3307 8.38281 37.5859 8.38281H35.6484V11.8086ZM43.8047 18V9.39062H45.9805V10.8789C46.3216 10.293 46.6042 9.89844 46.8281 9.69531C47.224 9.34375 47.737 9.16797 48.3672 9.16797L48.8125 9.19922V11.5039L48.1562 11.457C47.3568 11.457 46.7865 11.6758 46.4453 12.1133C46.1901 12.444 46.0625 12.9023 46.0625 13.4883V18H43.8047ZM55.1914 15.4727H57.5117C57.2331 16.4206 56.7148 17.1354 55.957 17.6172C55.306 18.0208 54.5651 18.2227 53.7344 18.2227C52.4115 18.2227 51.3932 17.8815 50.6797 17.1992C49.8568 16.4206 49.4453 15.194 49.4453 13.5195C49.4453 12.1549 49.8294 11.0729 50.5977 10.2734C51.3138 9.53646 52.306 9.16797 53.5742 9.16797C54.8424 9.16797 55.819 9.50911 56.5039 10.1914C57.2383 10.918 57.6055 12.0065 57.6055 13.457V14.3047H51.7656C51.7656 14.849 51.862 15.2812 52.0547 15.6016C52.375 16.1432 52.9349 16.4141 53.7344 16.4141C54.0651 16.4141 54.3685 16.3294 54.6445 16.1602C54.9232 16.0013 55.1055 15.7721 55.1914 15.4727ZM51.7812 12.832H55.2852C55.2227 12.1914 55.0091 11.7161 54.6445 11.4062C54.3477 11.151 53.9805 11.0234 53.543 11.0234C53.0195 11.0234 52.6133 11.1784 52.3242 11.4883C52.0273 11.8086 51.8464 12.2565 51.7812 12.832ZM66.3789 9.39062L63.2734 18H60.8906L57.8008 9.39062H60.2188L62.043 15.7422L63.9609 9.39062H66.3789Z" fill="#A8A8A8"/>
</svg>
