<svg width="68" height="26" viewBox="0 0 68 26" fill="none" xmlns="http://www.w3.org/2000/svg">
<path d="M8.32031 6.38281H10.5742V18H8.14453L3.42578 9.71094L3.375 18H1.12109V6.38281H3.67969L8.28906 14.4648L8.32031 6.38281ZM17.8008 15.4727H20.1211C19.8424 16.4206 19.3242 17.1354 18.5664 17.6172C17.9154 18.0208 17.1745 18.2227 16.3438 18.2227C15.0208 18.2227 14.0026 17.8815 13.2891 17.1992C12.4661 16.4206 12.0547 15.194 12.0547 13.5195C12.0547 12.1549 12.4388 11.0729 13.207 10.2734C13.9232 9.53646 14.9154 9.16797 16.1836 9.16797C17.4518 9.16797 18.4284 9.50911 19.1133 10.1914C19.8477 10.918 20.2148 12.0065 20.2148 13.457V14.3047H14.375C14.375 14.849 14.4714 15.2812 14.6641 15.6016C14.9844 16.1432 15.5443 16.4141 16.3438 16.4141C16.6745 16.4141 16.9779 16.3294 17.2539 16.1602C17.5326 16.0013 17.7148 15.7721 17.8008 15.4727ZM14.3906 12.832H17.8945C17.832 12.1914 17.6185 11.7161 17.2539 11.4062C16.957 11.151 16.5898 11.0234 16.1523 11.0234C15.6289 11.0234 15.2227 11.1784 14.9336 11.4883C14.6367 11.8086 14.4557 12.2565 14.3906 12.832ZM26.5117 13.6172L29.4414 18H26.6406L25.1523 15.4062L23.6641 18H20.9258L23.8555 13.6172L21.0391 9.39062H23.793L25.2461 11.9023L26.6719 9.39062H29.3438L26.5117 13.6172ZM33.2734 7.08984V9.40625H34.6797V11.0234H33.2734V15.6953C33.2734 15.974 33.3255 16.1549 33.4297 16.2383C33.526 16.3346 33.7878 16.3828 34.2148 16.3828L34.6797 16.3516V18.0469L33.625 18.0977C32.5781 18.0977 31.8633 17.9323 31.4805 17.6016C31.1706 17.3333 31.0156 16.8789 31.0156 16.2383V11.0234H29.8633V9.40625H31.0156V7.08984H33.2734Z" fill="#313037"/>
<path fill-rule="evenodd" clip-rule="evenodd" d="M57.2925 19.7125C57.1025 19.5125 57.0025 19.2625 57.0025 19.0025C57.0025 18.7425 57.1025 18.4925 57.2925 18.2925L61.5925 14.0025L48.0025 14.0025C47.4525 14.0025 47.0025 13.5525 47.0025 13.0025C47.0025 12.4525 47.4525 12.0025 48.0025 12.0025L61.5925 12.0025L57.2925 7.7125C56.9025 7.3225 56.9025 6.6825 57.2925 6.2925C57.6825 5.9025 58.3225 5.9025 58.7125 6.2925L64.7125 12.2925C64.8025 12.3825 64.8725 12.4925 64.9225 12.6125C64.9425 12.6625 64.9625 12.7025 64.9625 12.7525C65.0125 12.9125 65.0125 13.0925 64.9625 13.2525C64.9625 13.3025 64.9425 13.3425 64.9225 13.3925C64.8725 13.5125 64.8025 13.6225 64.7125 13.7125L58.7125 19.7125C58.3225 20.1025 57.6825 20.1025 57.2925 19.7125Z" fill="#313037"/>
</svg>
