<svg width="112" height="16" viewBox="0 0 112 16" fill="none" xmlns="http://www.w3.org/2000/svg">
<rect width="16" height="16" fill="white"/>
<path fill-rule="evenodd" clip-rule="evenodd" d="M11.9324 14.5C11.8312 14.5 11.7294 14.4765 11.6358 14.4287L8.00032 12.5662L4.36353 14.4287C4.14971 14.5391 3.88944 14.5205 3.69281 14.3816C3.49745 14.2428 3.39945 14.0079 3.44017 13.7754L4.13444 9.83278L1.19256 7.04174C1.01883 6.87686 0.956467 6.6308 1.03092 6.40642C1.10601 6.18205 1.30519 6.01841 1.54446 5.98432L5.61143 5.40541L7.4295 1.81728C7.64396 1.39457 8.35604 1.39457 8.5705 1.81728L10.3886 5.40541L14.4555 5.98432C14.6954 6.01841 14.8946 6.18205 14.9691 6.40642C15.0435 6.6308 14.9812 6.87686 14.8074 7.04174L11.8656 9.83278L12.5598 13.7754C12.6006 14.0079 12.5026 14.2428 12.3066 14.3816C12.1952 14.4603 12.0641 14.5 11.9324 14.5Z" fill="#313037"/>
<rect width="16" height="16" transform="translate(24)" fill="white"/>
<path fill-rule="evenodd" clip-rule="evenodd" d="M35.9324 14.5C35.8312 14.5 35.7294 14.4765 35.6358 14.4287L32.0003 12.5662L28.3635 14.4287C28.1497 14.5391 27.8894 14.5205 27.6928 14.3816C27.4974 14.2428 27.3994 14.0079 27.4402 13.7754L28.1344 9.83278L25.1926 7.04174C25.0188 6.87686 24.9565 6.6308 25.0309 6.40642C25.106 6.18205 25.3052 6.01841 25.5445 5.98432L29.6114 5.40541L31.4295 1.81728C31.644 1.39457 32.356 1.39457 32.5705 1.81728L34.3886 5.40541L38.4555 5.98432C38.6954 6.01841 38.8946 6.18205 38.9691 6.40642C39.0435 6.6308 38.9812 6.87686 38.8074 7.04174L35.8656 9.83278L36.5598 13.7754C36.6006 14.0079 36.5026 14.2428 36.3066 14.3816C36.1952 14.4603 36.0641 14.5 35.9324 14.5Z" fill="#313037"/>
<rect width="16" height="16" transform="translate(48)" fill="white"/>
<path fill-rule="evenodd" clip-rule="evenodd" d="M59.9324 14.5C59.8312 14.5 59.7294 14.4765 59.6358 14.4287L56.0003 12.5662L52.3635 14.4287C52.1497 14.5391 51.8894 14.5205 51.6928 14.3816C51.4974 14.2428 51.3994 14.0079 51.4402 13.7754L52.1344 9.83278L49.1926 7.04174C49.0188 6.87686 48.9565 6.6308 49.0309 6.40642C49.106 6.18205 49.3052 6.01841 49.5445 5.98432L53.6114 5.40541L55.4295 1.81728C55.644 1.39457 56.356 1.39457 56.5705 1.81728L58.3886 5.40541L62.4555 5.98432C62.6954 6.01841 62.8946 6.18205 62.9691 6.40642C63.0435 6.6308 62.9812 6.87686 62.8074 7.04174L59.8656 9.83278L60.5598 13.7754C60.6006 14.0079 60.5026 14.2428 60.3066 14.3816C60.1952 14.4603 60.0641 14.5 59.9324 14.5Z" fill="#313037"/>
<rect width="16" height="16" transform="translate(72)" fill="white"/>
<path fill-rule="evenodd" clip-rule="evenodd" d="M83.9324 14.5C83.8312 14.5 83.7294 14.4765 83.6358 14.4287L80.0003 12.5662L76.3635 14.4287C76.1497 14.5391 75.8894 14.5205 75.6928 14.3816C75.4974 14.2428 75.3994 14.0079 75.4402 13.7754L76.1344 9.83278L73.1926 7.04174C73.0188 6.87686 72.9565 6.6308 73.0309 6.40642C73.106 6.18205 73.3052 6.01841 73.5445 5.98432L77.6114 5.40541L79.4295 1.81728C79.644 1.39457 80.356 1.39457 80.5705 1.81728L82.3886 5.40541L86.4555 5.98432C86.6954 6.01841 86.8946 6.18205 86.9691 6.40642C87.0435 6.6308 86.9812 6.87686 86.8074 7.04174L83.8656 9.83278L84.5598 13.7754C84.6006 14.0079 84.5026 14.2428 84.3066 14.3816C84.1952 14.4603 84.0641 14.5 83.9324 14.5Z" fill="#313037"/>
<rect width="16" height="16" transform="translate(96)" fill="white"/>
<path fill-rule="evenodd" clip-rule="evenodd" d="M107.932 14.5C107.831 14.5 107.729 14.4765 107.636 14.4287L104 12.5662L100.364 14.4287C100.15 14.5391 99.8894 14.5205 99.6928 14.3816C99.4974 14.2428 99.3994 14.0079 99.4402 13.7754L100.134 9.83278L97.1926 7.04174C97.0188 6.87686 96.9565 6.6308 97.0309 6.40642C97.106 6.18205 97.3052 6.01841 97.5445 5.98432L101.611 5.40541L103.43 1.81728C103.644 1.39457 104.356 1.39457 104.57 1.81728L106.389 5.40541L110.456 5.98432C110.695 6.01841 110.895 6.18205 110.969 6.40642C111.044 6.6308 110.981 6.87686 110.807 7.04174L107.866 9.83278L108.56 13.7754C108.601 14.0079 108.503 14.2428 108.307 14.3816C108.195 14.4603 108.064 14.5 107.932 14.5Z" fill="#E7E7E7"/>
</svg>
